<svg xmlns="http://www.w3.org/2000/svg" width="154" height="154" viewBox="0 0 154 154" fill="none">
  <path d="M35.0898 35H70.1998V70H35.0898V35ZM58.7098 46.73H46.7098V58.48H58.7098V46.73Z" fill="#222222"/>
  <path d="M83.0898 35.0098H118.21V70.0098H83.0898V35.0098ZM106.68 46.6398H94.7698V58.5198H106.68V46.6398Z" fill="#222222"/>
  <path d="M35 117.98V82.9805H70.26V117.98H35ZM58.64 106.45V94.5905H46.69V106.45H58.64Z" fill="#222222"/>
  <path d="M94.7108 94.31H83.0508V83H94.5908V94.44L94.7108 94.31Z" fill="#222222"/>
  <path d="M106.77 94.49V83.04H118.19V94.36H106.65L106.77 94.49Z" fill="#222222"/>
  <path d="M106.65 94.3598L106.52 106.48L106.65 106.36H94.6498L94.7698 106.48L94.7098 94.3398L94.5898 94.4598H106.77L106.65 94.3598Z" fill="#222222"/>
  <path d="M94.65 106.34V118.02H83V106.47H94.77L94.65 106.34Z" fill="#222222"/>
  <path d="M106.52 106.48H118.21V118.06H106.65V106.36L106.52 106.48Z" fill="#222222"/>
  <path d="M58.7109 46.7305V58.4805H46.7109V46.7305H58.7109Z" fill="white"/>
  <path d="M106.68 46.6396V58.5196H94.7695V46.6396H106.68Z" fill="white"/>
  <path d="M58.6295 106.45H46.6895V94.5898H58.6295V106.45Z" fill="white"/>
  <path d="M11.6298 27.08C11.6298 28.1846 10.7344 29.08 9.62984 29.08H2.08984C0.985273 29.08 0.0898438 28.1846 0.0898438 27.08V2C0.0898438 0.89543 0.985274 0 2.08984 0H27.1998C28.3044 0 29.1998 0.89543 29.1998 2V9.14C29.1998 10.2446 28.3044 11.14 27.1998 11.14H13.6298C12.5253 11.14 11.6298 12.0354 11.6298 13.14V27.08Z" fill="#222222"/>
  <path d="M142.079 13.24C142.079 12.1354 141.184 11.24 140.079 11.24H126.199C125.095 11.24 124.199 10.3446 124.199 9.24V2C124.199 0.895432 125.095 0 126.199 0H151.199C152.304 0 153.199 0.895431 153.199 2V26.87C153.199 27.9746 152.304 28.87 151.199 28.87H144.079C142.975 28.87 142.079 27.9746 142.079 26.87V13.24Z" fill="#222222"/>
  <path d="M2 153.23C0.89543 153.23 0 152.335 0 151.23V126.08C0 124.976 0.895431 124.08 2 124.08H9.37C10.4746 124.08 11.37 124.976 11.37 126.08V139.68C11.37 140.785 12.2654 141.68 13.37 141.68H27.19C28.2946 141.68 29.19 142.576 29.19 143.68V151.23C29.19 152.335 28.2946 153.23 27.19 153.23H2Z" fill="#222222"/>
  <path d="M126.189 153.16C125.085 153.16 124.189 152.265 124.189 151.16V143.93C124.189 142.826 125.085 141.93 126.189 141.93H139.889C140.994 141.93 141.889 141.035 141.889 139.93V126.08C141.889 124.976 142.785 124.08 143.889 124.08H151.349C152.454 124.08 153.349 124.976 153.349 126.08V151.16C153.349 152.265 152.454 153.16 151.349 153.16H126.189Z" fill="#222222"/>
</svg>