<?xml version="1.0" standalone="no"?>
<!DOCTYPE svg PUBLIC "-//W3C//DTD SVG 20010904//EN"
 "http://www.w3.org/TR/2001/REC-SVG-20010904/DTD/svg10.dtd">
<svg version="1.0" xmlns="http://www.w3.org/2000/svg"
 width="96.000000pt" height="96.000000pt" viewBox="0 0 96.000000 96.000000"
 preserveAspectRatio="xMidYMid meet">

<g transform="translate(0.000000,96.000000) scale(0.100000,-0.100000)"
fill="#838383" stroke="none">
<path d="M386 870 c-63 -16 -153 -70 -197 -117 -97 -105 -130 -248 -89 -385
l22 -76 -22 -87 -23 -86 21 -21 21 -21 86 23 87 22 76 -22 c191 -57 380 27
470 208 35 72 37 81 37 172 0 91 -2 100 -37 172 -68 136 -188 217 -336 224
-42 2 -94 -1 -116 -6z m235 -82 c69 -32 135 -98 168 -168 37 -79 37 -201 0
-280 -33 -70 -99 -136 -169 -169 -74 -35 -200 -36 -272 -4 l-47 22 -72 -21
c-39 -11 -73 -17 -76 -15 -2 3 4 37 15 76 l21 72 -22 47 c-33 71 -31 198 4
272 28 59 94 132 143 157 96 50 213 54 307 11z"/>
<path d="M284 565 c-4 -8 -4 -22 0 -30 5 -13 33 -15 198 -13 l193 3 0 25 0 25
-193 3 c-165 2 -193 0 -198 -13z"/>
<path d="M284 425 c-4 -8 -4 -22 0 -30 5 -13 29 -15 158 -13 l153 3 0 25 0 25
-153 3 c-129 2 -153 0 -158 -13z"/>
</g>
</svg>
