<svg xmlns="http://www.w3.org/2000/svg" fill="none" viewBox="0 0 26 24"><path fill="#222" d="M0 7.697c.06-5.12 4.46-8.7 9.11-7.39a6.59 6.59 0 0 1 3.29 2.16c.4.46.6.61 1.13.06 2.4-2.53 5.35-3.18 8.14-1.86a7.88 7.88 0 0 1 4.26 8 11.4 11.4 0 0 1-3.93 7c-2.51 2.37-5.16 4.59-7.75 6.88a1.622 1.622 0 0 1-2.36.12 104.01 104.01 0 0 1-8.88-8A10.06 10.06 0 0 1 0 7.697Zm7-6.14a5.28 5.28 0 0 0-4.66 3c-1.51 2.8-.88 6 1.71 8.94 2.59 2.94 5.59 5.1 8.39 7.65.44.4.76.33 1.17 0 2.48-2.21 5.11-4.27 7.45-6.64a11 11 0 0 0 3.19-5 6.45 6.45 0 0 0-3.05-7.37c-2.61-1.31-5.07-.54-7.2 2.2-.81 1-1.31 1.06-2.12 0A5.74 5.74 0 0 0 7 1.557Z"/></svg>