<svg width="27" height="45" viewBox="0 0 27 45" fill="none" xmlns="http://www.w3.org/2000/svg">
<path d="M13.8215 1H13.8205C8.15622 1 3.56445 5.53284 3.56445 11.1244V25.1737C3.56445 30.7653 8.15622 35.2981 13.8205 35.2981H13.8215C19.4857 35.2981 24.0775 30.7653 24.0775 25.1737V11.1244C24.0775 5.53284 19.4857 1 13.8215 1Z" fill="#FFCC00"/>
<path d="M1 8.46692H10.391L8.67 20.1106H11.9" stroke="black" stroke-width="1.5"/>
<path d="M3.55763 15.9349C4.47828 15.9349 5.22463 15.1981 5.22463 14.2893C5.22463 13.3804 4.47828 12.6437 3.55763 12.6437C2.63697 12.6437 1.89062 13.3804 1.89062 14.2893C1.89062 15.1981 2.63697 15.9349 3.55763 15.9349Z" stroke="black" stroke-width="1.5"/>
<path d="M16.1279 15.9349C17.0486 15.9349 17.7949 15.1981 17.7949 14.2893C17.7949 13.3804 17.0486 12.6437 16.1279 12.6437C15.2073 12.6437 14.4609 13.3804 14.4609 14.2893C14.4609 15.1981 15.2073 15.9349 16.1279 15.9349Z" stroke="black" stroke-width="1.5"/>
<path d="M23.1787 18.3386C23.9268 18.3386 24.6442 18.0453 25.1731 17.5231C25.7021 17.001 25.9992 16.2928 25.9992 15.5543C25.9992 14.8159 25.7021 14.1077 25.1731 13.5855C24.6442 13.0634 23.9268 12.77 23.1787 12.77" stroke="black" stroke-width="1.5"/>
<path d="M2.15527 1C2.17259 1.75452 2.49238 2.47145 3.04448 2.99352C3.59658 3.51559 4.33591 3.80015 5.10027 3.7848C5.47934 3.79332 5.8564 3.72805 6.20991 3.5927C6.56342 3.45736 6.88647 3.2546 7.16059 2.996C7.43472 2.73741 7.65455 2.42803 7.80755 2.08556C7.96055 1.74308 8.0437 1.37421 8.05227 1C8.05645 1.36986 8.13439 1.73529 8.28164 2.07541C8.42889 2.41553 8.64257 2.72369 8.91047 2.98229C9.17838 3.24088 9.49525 3.44485 9.84301 3.58255C10.1908 3.72025 10.5626 3.78897 10.9373 3.7848C11.6938 3.79296 12.4226 3.50417 12.9634 2.98193C13.5043 2.4597 13.8128 1.74679 13.8213 1" stroke="black" stroke-width="1.5"/>
<path d="M13.5645 8.46692H18.6925" stroke="black" stroke-width="1.5"/>
<path d="M18.3078 22.8983C17.3707 24.2622 16.1096 25.3788 14.6346 26.1506C13.1597 26.9225 11.5157 27.326 9.84627 27.326C8.17687 27.326 6.53287 26.9225 5.05788 26.1506C3.5829 25.3788 2.3218 24.2622 1.38477 22.8983" stroke="black" stroke-width="1.5"/>
<path d="M19.9752 11.5044H12.2832V11.6308H19.9752V11.5044Z" fill="#FFCC00"/>
<path d="M8.99951 36.538H18.9995C20.3445 36.5569 21.6267 37.1024 22.5644 38.0545C23.502 39.0066 24.0182 40.2873 23.9995 41.615C24.0121 42.5001 23.668 43.3539 23.043 43.9887C22.418 44.6235 21.5632 44.9872 20.6665 45H7.33251C6.43587 44.9872 5.58106 44.6235 4.95604 43.9887C4.33102 43.3539 3.98696 42.5001 3.99951 41.615C3.98082 40.2873 4.49703 39.0066 5.43466 38.0545C6.37229 37.1024 7.65455 36.5569 8.99951 36.538Z" fill="#222222"/>
</svg>
