<svg xmlns="http://www.w3.org/2000/svg" width="48" height="44" viewBox="0 0 48 44" fill="none">
  <g clip-path="url(#clip0_1114_700)">
    <path d="M32.25 21H28.5C27.1193 21 26 22.1193 26 23.5V38.5C26 39.8807 27.1193 41 28.5 41H32.25M41 26L46 31M46 31L41 36M46 31L31 31" stroke="#FFCC00" stroke-width="1.5" stroke-linecap="round" stroke-linejoin="round"/>
    <path d="M12.8215 0H12.8205C7.15622 0 2.56445 4.59177 2.56445 10.256V24.488C2.56445 30.1522 7.15622 34.744 12.8205 34.744H12.8215C18.4857 34.744 23.0775 30.1522 23.0775 24.488V10.256C23.0775 4.59177 18.4857 0 12.8215 0Z" fill="#FFCC00"/>
    <path d="M0 7.56396H9.391L7.67 19.359H10.9" stroke="black" stroke-width="1.5"/>
    <path d="M2.55763 15.129C3.47828 15.129 4.22463 14.3827 4.22463 13.462C4.22463 12.5414 3.47828 11.795 2.55763 11.795C1.63697 11.795 0.890625 12.5414 0.890625 13.462C0.890625 14.3827 1.63697 15.129 2.55763 15.129Z" stroke="black" stroke-width="1.5"/>
    <path d="M15.1279 15.129C16.0486 15.129 16.7949 14.3827 16.7949 13.462C16.7949 12.5414 16.0486 11.795 15.1279 11.795C14.2073 11.795 13.4609 12.5414 13.4609 13.462C13.4609 14.3827 14.2073 15.129 15.1279 15.129Z" stroke="black" stroke-width="1.5"/>
    <path d="M22.1787 17.564C22.9268 17.564 23.6442 17.2668 24.1731 16.7379C24.7021 16.2089 24.9992 15.4915 24.9992 14.7435C24.9992 13.9954 24.7021 13.278 24.1731 12.7491C23.6442 12.2201 22.9268 11.923 22.1787 11.923" stroke="black" stroke-width="1.5"/>
    <path d="M1.15527 0C1.17259 0.764329 1.49238 1.49058 2.04448 2.01943C2.59658 2.54829 3.33591 2.83656 4.10027 2.821C4.47934 2.82963 4.8564 2.76351 5.20991 2.62641C5.56342 2.48931 5.88647 2.28391 6.16059 2.02195C6.43472 1.75999 6.65455 1.4466 6.80755 1.09967C6.96055 0.75274 7.0437 0.37907 7.05227 0C7.05645 0.374668 7.13439 0.744844 7.28164 1.08939C7.42889 1.43393 7.64257 1.7461 7.91047 2.00806C8.17838 2.27001 8.49525 2.47664 8.84301 2.61612C9.19078 2.75561 9.56261 2.82523 9.93727 2.821C10.6938 2.82927 11.4226 2.53672 11.9634 2.0077C12.5043 1.47868 12.8128 0.756503 12.8213 0" stroke="black" stroke-width="1.5"/>
    <path d="M12.5645 7.56396H17.6925" stroke="black" stroke-width="1.5"/>
    <path d="M17.3078 22.183C16.3707 23.5646 15.1096 24.6957 13.6346 25.4776C12.1597 26.2595 10.5157 26.6682 8.84627 26.6682C7.17687 26.6682 5.53287 26.2595 4.05788 25.4776C2.5829 24.6957 1.3218 23.5646 0.384766 22.183" stroke="black" stroke-width="1.5"/>
    <path d="M18.9752 10.641H11.2832V10.769H18.9752V10.641Z" fill="#FFCC00"/>
    <path d="M7.99951 36H17.9995C19.3445 36.0192 20.6267 36.5718 21.5644 37.5363C22.502 38.5007 23.0182 39.798 22.9995 41.143C23.0121 42.0396 22.668 42.9046 22.043 43.5476C21.418 44.1906 20.5632 44.5591 19.6665 44.572H6.33251C5.43587 44.5591 4.58106 44.1906 3.95604 43.5476C3.33102 42.9046 2.98696 42.0396 2.99951 41.143C2.98082 39.798 3.49703 38.5007 4.43466 37.5363C5.37229 36.5718 6.65455 36.0192 7.99951 36Z" fill="#222222"/>
  </g>
  <defs>
    <clipPath id="clip0_1114_700">
      <rect width="48" height="44" fill="white"/>
    </clipPath>
  </defs>
</svg>