<svg width="150" height="97" viewBox="0 0 150 97" fill="none" xmlns="http://www.w3.org/2000/svg">
<g clip-path="url(#clip0_521_525)">
<path d="M69.2002 83.1345H83.4916V96.7238H53.4264C57.3847 69.0217 61.3274 41.4356 65.3014 13.6301H8.43359V0H81.0783C77.1231 27.677 73.1773 55.3039 69.2002 83.1345Z" fill="black"/>
<path d="M90.3272 16.6106H103.067V21.4402H132.477V16.6388H145.242V43.9272H124.216V48.5312H150V57.9553H85.4976V48.6346H111.05V44.0557H90.3272V16.6106ZM132.459 34.5124V30.319H106.584C102.889 30.319 102.885 30.319 103.136 34.0392C103.179 34.2072 103.244 34.3686 103.33 34.5187L132.459 34.5124Z" fill="black"/>
<path d="M52.9251 26.2103V36.7001H12.5363V56.6892H53.6742V67.3075H0V26.2103H52.9251Z" fill="black"/>
<path d="M145.271 84.8865H90.2988V61.9451H145.271V84.8865ZM132.452 71.2188H128.76C120.724 71.2188 112.688 71.2188 104.65 71.2188C104.045 71.2188 103.161 70.9054 103.133 72.0117C103.105 73.1181 103.133 74.2651 103.133 75.431H132.458L132.452 71.2188Z" fill="black"/>
</g>
<defs>
<clipPath id="clip0_521_525">
<rect width="150" height="96.7238" fill="white"/>
</clipPath>
</defs>
</svg>
