<svg width="48" height="49" viewBox="0 0 48 49" fill="none" xmlns="http://www.w3.org/2000/svg">
<path d="M29.25 24H39.75C40.8546 24 41.75 24.8954 41.75 26V42C41.75 43.1046 40.8546 44 39.75 44H29.25" stroke="white" stroke-width="1.5" stroke-linecap="round" stroke-linejoin="round"/>
<path d="M33 37.75L36.75 34M36.75 34L33 30.25M36.75 34H24.25" stroke="white" stroke-width="1.5" stroke-linecap="round" stroke-linejoin="round"/>
<path d="M13.8215 1H13.8205C8.15622 1 3.56445 5.59177 3.56445 11.256V25.488C3.56445 31.1522 8.15622 35.744 13.8205 35.744H13.8215C19.4857 35.744 24.0775 31.1522 24.0775 25.488V11.256C24.0775 5.59177 19.4857 1 13.8215 1Z" fill="#FFCC00"/>
<path d="M1 8.56396H10.391L8.67 20.359H11.9" stroke="black" stroke-width="1.5"/>
<path d="M3.55763 16.129C4.47828 16.129 5.22463 15.3827 5.22463 14.462C5.22463 13.5414 4.47828 12.795 3.55763 12.795C2.63697 12.795 1.89062 13.5414 1.89062 14.462C1.89062 15.3827 2.63697 16.129 3.55763 16.129Z" stroke="black" stroke-width="1.5"/>
<path d="M16.1279 16.129C17.0486 16.129 17.7949 15.3827 17.7949 14.462C17.7949 13.5414 17.0486 12.795 16.1279 12.795C15.2073 12.795 14.4609 13.5414 14.4609 14.462C14.4609 15.3827 15.2073 16.129 16.1279 16.129Z" stroke="black" stroke-width="1.5"/>
<path d="M23.1787 18.564C23.9268 18.564 24.6442 18.2668 25.1731 17.7379C25.7021 17.2089 25.9992 16.4915 25.9992 15.7435C25.9992 14.9954 25.7021 14.278 25.1731 13.7491C24.6442 13.2201 23.9268 12.923 23.1787 12.923" stroke="black" stroke-width="1.5"/>
<path d="M2.15527 1C2.17259 1.76433 2.49238 2.49058 3.04448 3.01943C3.59658 3.54829 4.33591 3.83656 5.10027 3.821C5.47934 3.82963 5.8564 3.76351 6.20991 3.62641C6.56342 3.48931 6.88647 3.28391 7.16059 3.02195C7.43472 2.75999 7.65455 2.4466 7.80755 2.09967C7.96055 1.75274 8.0437 1.37907 8.05227 1C8.05645 1.37467 8.13439 1.74484 8.28164 2.08939C8.42889 2.43393 8.64257 2.7461 8.91047 3.00806C9.17838 3.27001 9.49525 3.47664 9.84301 3.61612C10.1908 3.75561 10.5626 3.82523 10.9373 3.821C11.6938 3.82927 12.4226 3.53672 12.9634 3.0077C13.5043 2.47868 13.8128 1.7565 13.8213 1" stroke="black" stroke-width="1.5"/>
<path d="M13.5645 8.56396H18.6925" stroke="black" stroke-width="1.5"/>
<path d="M18.3078 23.183C17.3707 24.5646 16.1096 25.6957 14.6346 26.4776C13.1597 27.2595 11.5157 27.6682 9.84627 27.6682C8.17687 27.6682 6.53287 27.2595 5.05788 26.4776C3.5829 25.6957 2.3218 24.5646 1.38477 23.183" stroke="black" stroke-width="1.5"/>
<path d="M19.9752 11.641H12.2832V11.769H19.9752V11.641Z" fill="#FFCC00"/>
<path d="M8.99951 37H18.9995C20.3445 37.0192 21.6267 37.5718 22.5644 38.5363C23.502 39.5007 24.0182 40.798 23.9995 42.143C24.0121 43.0396 23.668 43.9046 23.043 44.5476C22.418 45.1906 21.5632 45.5591 20.6665 45.572H7.33251C6.43587 45.5591 5.58106 45.1906 4.95604 44.5476C4.33102 43.9046 3.98696 43.0396 3.99951 42.143C3.98082 40.798 4.49703 39.5007 5.43466 38.5363C6.37229 37.5718 7.65455 37.0192 8.99951 37Z" fill="#222222"/>
</svg>
